<svg version="1" xmlns="http://www.w3.org/2000/svg" width="537.333" height="537.333" viewBox="0 0 403.000000 403.000000"><path d="M0 201.5V403h403V0H0v201.5zM103.6 18.1c4.6 3.3 8.4 6.3 8.4 6.6 0 .4-3.6 6.1-7.9 12.7-25.1 38.5-33 70.1-24.6 99 5 17.2 11 27.9 32.9 58.5 13.9 19.4 22.1 32.2 27.3 42.6 19.4 38.5 16.4 79.7-8.8 124.9-7.1 12.6-17.5 28.6-18.8 28.6-.7 0-15.3-10-17.4-12-.5-.4 2.4-5.6 6.3-11.6 13.4-20.6 22.9-41.7 26.5-59.1 2.4-11.3 2.2-27.6-.4-38.8-2.3-9.5-8.9-24.3-16.1-36-2.3-3.9-10.3-15.4-17.7-25.7-16.2-22.7-22.2-32.2-28.4-45.3-17.1-35.8-15.5-71 5-111.8C76.7 37.1 92.5 12 94.2 12c.5 0 4.8 2.7 9.4 6.1zm98.2-.5c4.2 3.2 8.1 6 8.5 6.4.5.4-2.9 6.3-7.3 13.1-14 21.2-23.8 43.6-26.9 61.3-1.5 8.4-1.4 23.3.4 31.3 4.1 19.4 10.9 32.2 34.9 65.6 14.3 19.8 20.6 29.8 26.4 41.3 18.9 37.6 17.6 74.6-4.2 117.9-7.3 14.5-21.1 36.5-22.8 36.5-1.2 0-17.8-11.9-17.8-12.7 0-.4 3.2-5.5 7.1-11.5 14.3-22 24.4-45.7 27-63.7 1.5-10.7.6-27.5-1.9-36.1-5.2-17.5-12.2-30-33.5-59.7-21.5-29.9-28.3-41.8-34.2-59.6-4.5-13.7-5.9-24.2-5.2-39.6 1.2-26.9 11.7-54.3 32.8-85.7 3.8-5.7 7.4-10.4 7.9-10.4.6 0 4.5 2.5 8.8 5.6zm99.3.5c4.6 3.4 8.5 6.3 8.7 6.4.1.1-2.6 4.4-6.1 9.6-27.6 40.6-35.9 74-26.1 105 4.9 15.5 12.3 28.2 34.2 58.7 21.1 29.4 29.4 45 34.9 66.1 3.4 12.5 3.8 34.9 1 48-5 23-14.4 44.2-31.5 70.3-3.1 4.8-6.2 8.8-6.7 8.8-1.5 0-18-12-17.8-13 .1-.4 3.4-5.7 7.3-11.6 4-6 10-16.8 13.5-23.9 20.2-41.5 19.1-72-4.2-109.1-2.8-4.5-11.5-17.1-19.3-28-21.5-30.2-28.9-43.7-34.4-62.6-10.1-35-1.4-73.4 26.5-116.3C288.4 15.2 290.8 12 292 12c.3 0 4.4 2.8 9.1 6.1z"/></svg>